<?xml version="1.0" encoding="UTF-8" standalone="no"?><!DOCTYPE svg PUBLIC "-//W3C//DTD SVG 1.1//EN" "http://www.w3.org/Graphics/SVG/1.1/DTD/svg11.dtd"><svg width="100%" height="100%" viewBox="0 0 267 267" version="1.1" xmlns="http://www.w3.org/2000/svg" xmlns:xlink="http://www.w3.org/1999/xlink" xml:space="preserve" xmlns:serif="http://www.serif.com/" style="fill-rule:evenodd;clip-rule:evenodd;stroke-linejoin:round;stroke-miterlimit:2;"><path d="M133.333,10.417c67.84,-0 122.917,55.077 122.917,122.916c0,67.84 -55.077,122.917 -122.917,122.917c-67.839,0 -122.916,-55.077 -122.916,-122.917c-0,-67.839 55.077,-122.916 122.916,-122.916Zm0,175c8.049,-0 14.584,6.534 14.584,14.583c-0,8.049 -6.535,14.583 -14.584,14.583c-8.048,0 -14.583,-6.534 -14.583,-14.583c0,-8.049 6.535,-14.583 14.583,-14.583Zm-22.811,-115.221l16.005,93.706c0.475,2.78 3.379,4.848 6.806,4.848c3.428,0 6.332,-2.068 6.806,-4.848l16.005,-93.706c1.635,-9.569 -7.441,-18.113 -19.241,-18.113l-7.139,0c-11.801,0 -20.876,8.544 -19.242,18.113Z" style="fill:#272727;"/></svg>