<?xml version="1.0" encoding="UTF-8" standalone="no"?>
<!DOCTYPE svg PUBLIC "-//W3C//DTD SVG 1.1//EN" "http://www.w3.org/Graphics/SVG/1.1/DTD/svg11.dtd">
<svg width="100%" height="100%" viewBox="0 0 267 267" version="1.1" xmlns="http://www.w3.org/2000/svg"
    xmlns:xlink="http://www.w3.org/1999/xlink" xml:space="preserve" xmlns:serif="http://www.serif.com/"
    style="fill-rule:evenodd;clip-rule:evenodd;stroke-linecap:round;stroke-linejoin:round;stroke-miterlimit:1;">
    <path
        d="M21.307,73.13l112.028,93.906l112.035,-93.912l-0,0.002c1.775,-0.997 3.822,-1.566 6.001,-1.566c6.777,0 12.279,5.503 12.279,12.28c-0,3.496 -1.464,6.652 -3.812,8.889l0.007,0l-117.757,98.709c-2.228,2.265 -5.328,3.67 -8.753,3.67c-3.425,0 -6.525,-1.405 -8.752,-3.67l-117.757,-98.709l0.003,-0.001c-2.348,-2.238 -3.812,-5.394 -3.812,-8.89c-0,-6.777 5.502,-12.28 12.279,-12.28c2.179,0 4.226,0.569 6.001,1.566"
        style="fill:none;stroke:#060000;stroke-width:2.75px;" />
</svg>